<svg width="250" height="56" viewBox="0 0 250 56" fill="none" xmlns="http://www.w3.org/2000/svg">
    <g clip-path="url(#clip0_13_475)">
        <path d="M57.8215 39.6867H68.2357V38.5308L66.1692 37.5889C64.057 36.647 63.9268 35.7579 63.9268 31.8291L64.5419 15.3432C64.5419 14.5034 64.6298 14.0259 64.9813 14.0259C65.2449 14.0259 65.3751 14.5462 65.7298 15.4387L70.8718 30.0408C72.3233 34.1771 73.6869 38.208 74.0839 39.3047L74.52 39.6735H76.5898L77.0292 39.3047C77.3351 38.4155 79.3594 31.7698 80.4561 28.6807L85.3378 14.8492C85.5591 14.2202 85.7348 14.0127 85.9528 14.0127C86.3043 14.0127 86.3499 14.2729 86.3922 15.0007L86.7437 32.4317C86.7892 35.8369 86.4833 36.9336 85.3378 37.4572L83.3135 38.5308V39.6834H95.9765V38.5308L94.2159 37.4835C93.207 36.9072 92.9141 36.2782 92.8099 31.727L92.3283 13.196C92.2827 11.9939 92.2372 10.7886 92.2372 9.57342C92.2372 7.90046 92.4585 7.37683 93.6463 6.69514L95.3159 5.75327V4.61052H86.2685L85.8747 4.97607C85.4321 6.59634 84.9505 8.2199 84.4656 9.73808L78.1357 28.2757C77.8103 29.1648 77.7387 29.5929 77.4848 29.5929C77.231 29.5929 77.0455 29.1747 76.8339 28.493L70.3511 10.209C69.736 8.48336 69.2088 6.75441 68.7239 4.97607L68.2845 4.61052H59.2307V5.75986L61.076 6.80711C62.2215 7.4888 62.4396 8.2199 62.4396 10.4297C62.4396 11.0554 62.3517 12.4056 62.3061 13.4133L61.4274 29.8992C61.1215 35.7118 61.0337 36.815 59.5366 37.5955L57.8215 38.5308V39.6867ZM117.576 35.4055L117.091 34.2035C115.991 34.9346 113.616 36.5087 111.022 36.5087C106.671 36.5087 104.513 32.6359 104.513 28.3415C104.513 26.9814 104.864 26.8233 106.14 26.8233H115.903C117.355 26.8233 117.84 25.9869 117.84 24.3666C117.84 17.1939 115.113 13.6867 108.825 13.6867C103.065 13.6867 98.4499 17.9283 98.4499 26.3557C98.4499 35.5767 101.437 40.3816 108.034 40.3816C111.067 40.3816 112.473 39.9106 113.749 38.814L117.576 35.4055ZM106.365 24.3995C105.001 24.3995 104.516 24.0702 104.516 22.934C104.516 19.6408 105.44 16.0775 107.858 16.0775C110.498 16.0775 112.122 19.2193 112.122 22.7793C112.122 24.0966 111.992 24.3995 110.82 24.3995H106.365ZM120.124 39.6867H132.084V38.5308L130.239 37.7437C129.006 37.2234 128.83 36.647 128.83 33.9235V21.103C128.83 19.0612 129.181 17.8592 131.16 17.8592C133.315 17.8592 134.021 19.6902 134.502 20.8922H135.251L136.878 16.9173C137.025 16.607 137.114 16.2722 137.142 15.9293C137.142 14.2037 135.866 13.6801 134.151 13.6801C131.515 13.6801 129.712 16.5584 129.051 16.5584C128.391 16.5584 128.225 15.1884 127.899 13.9337L120.124 15.3464V16.4958L121.664 17.1775C122.985 17.8065 123.115 18.1193 123.115 20.5794V33.9202C123.115 36.6437 123.07 37.1147 121.709 37.7404L120.124 38.5308V39.6867ZM138.899 39.6867H150.596V38.5308L149.011 37.7437C147.781 37.1707 147.605 36.647 147.605 33.9235V28.7466C147.605 27.6467 147.693 27.3865 148.002 27.2811C148.224 27.1745 148.461 27.1034 148.705 27.0703C148.881 27.0703 149.232 27.3338 149.541 27.9595L153.717 35.8139C154.693 37.6976 155.741 39.6867 157.368 39.6867H163.656V38.5308C161.15 36.3836 153.541 24.2941 153.541 22.9834C153.541 22.7233 153.938 22.147 154.192 21.7814L156.434 18.7451C157.358 17.5397 157.798 17.0161 159.038 16.4398L161.094 15.5045V14.3519H152.047V15.5045L153.453 16.2883C153.85 16.5485 154.104 16.7592 154.104 17.0721C154.104 17.6484 153.619 18.4882 152.786 19.8483L151.598 21.8242C150.807 23.1843 150.189 23.708 149.531 24.0735C148.874 24.439 148.477 24.6498 148.08 24.6498C147.683 24.6498 147.595 24.3205 147.595 23.4478V2.52262L147.165 1.99899L138.899 3.09893V4.24827L140.439 4.93985C141.76 5.56556 141.89 5.88171 141.89 8.34175V33.9202C141.89 36.6437 141.844 37.1147 140.481 37.7404L138.899 38.5308V39.6867ZM190.475 39.6867V38.5308L188.894 37.7437C187.66 37.1707 187.485 36.647 187.485 33.9235V14.454L187.045 13.9337L178.779 15.3464V16.4958L180.318 17.1775C181.64 17.8065 181.77 18.1193 181.77 20.5794V32.3066C181.77 35.4977 181.331 37.174 178.21 37.2267C174.63 37.2267 174.252 34.3484 174.252 30.5249V14.454L173.813 13.9337L165.547 15.3464V16.4958L167.086 17.1775C168.404 17.8065 168.534 18.1193 168.534 20.5794V31.9443C168.534 37.1279 170.337 40.3717 174.822 40.3717C177.24 40.3717 178.649 39.7954 179.615 39.2223C180.582 38.6493 181.025 38.0697 181.568 38.0697C181.828 38.0697 181.962 38.2805 182.095 38.5933C182.224 38.9518 182.326 39.3195 182.401 39.6933L190.475 39.6867ZM192.588 39.6867H204.548V38.5308L202.699 37.7437C201.469 37.2234 201.293 36.647 201.293 33.9235V21.103C201.293 19.0612 201.645 17.8592 203.623 17.8592C205.778 17.8592 206.481 19.6902 206.966 20.8922H207.711L209.338 16.9173C209.486 16.6076 209.576 16.2725 209.602 15.9293C209.602 14.2037 208.329 13.6801 206.614 13.6801C203.975 13.6801 202.172 16.5584 201.511 16.5584C200.851 16.5584 200.678 15.1982 200.369 13.9435L192.588 15.3464V16.4958L194.127 17.1775C195.429 17.8065 195.575 18.1193 195.575 20.5794V33.9202C195.575 36.6437 195.533 37.1147 194.169 37.7404L192.588 38.5308V39.6867Z" fill="black"/>
        <path d="M45.0967 3.86625C44.4734 2.73028 43.5699 1.77707 42.4743 1.09951C41.3787 0.421949 40.1283 0.0431415 38.8449 0L7.55032 0C6.21499 0.000735799 4.90359 0.358745 3.74908 1.03773C2.59458 1.71672 1.63801 2.69253 0.976369 3.86625C0.336482 4.99481 -0.000131281 6.2733 3.93538e-05 7.57442V32.2407C-0.00418938 33.5559 0.332448 34.8492 0.976369 35.9917C1.62865 37.1584 2.57437 38.1297 3.71752 38.807C4.86067 39.4843 6.16056 39.8434 7.48523 39.8481L25.8207 39.881L38.8384 50.2645L45.0902 55.2472L46.0665 56.0277V7.65017C46.0733 6.32422 45.7366 5.01962 45.0902 3.86625" fill="#008BD0"/>
        <path d="M40.4689 41.9458V7.30108C40.4702 6.77129 40.3163 6.25299 40.0267 5.81163C39.7371 5.37027 39.3247 5.02565 38.8417 4.82128C38.5213 4.68909 38.1788 4.62088 37.8328 4.62039H34.1716C33.7845 4.61833 33.4031 4.71426 33.0621 4.89948C32.721 5.08469 32.4312 5.35329 32.2189 5.68081C31.6071 6.58645 26.1819 14.7833 23.9689 18.1292L23.9396 18.1786C23.8973 18.2445 23.8518 18.284 23.8127 18.3433C23.7168 18.4566 23.5977 18.5476 23.4637 18.61C23.3298 18.6724 23.184 18.7047 23.0365 18.7047C22.889 18.7047 22.7433 18.6724 22.6093 18.61C22.4753 18.5476 22.3563 18.4566 22.2604 18.3433L22.1302 18.1687L22.1041 18.1259L13.8607 5.68081C13.6482 5.3535 13.3583 5.08506 13.0173 4.89988C12.6763 4.71469 12.295 4.61862 11.908 4.62039H7.97339C7.34331 4.62039 6.73903 4.87368 6.29349 5.32453C5.84796 5.77537 5.59766 6.38686 5.59766 7.02445V32.5371C5.59829 33.2732 5.88311 33.98 6.39138 34.5066C6.89964 35.0332 7.59113 35.3381 8.31836 35.3561H9.86422C9.97315 35.3544 10.0819 35.3456 10.1897 35.3297C10.6071 35.2911 11.0064 35.1386 11.345 34.8885C11.7289 34.6316 12.0438 34.2823 12.2613 33.8719C12.4789 33.4615 12.5923 33.0028 12.5914 32.5371V17.52C12.5914 17.486 12.5981 17.4523 12.6111 17.4209C12.624 17.3895 12.643 17.3611 12.6669 17.3372C12.6908 17.3133 12.7192 17.2944 12.7504 17.2817C12.7816 17.269 12.8149 17.2627 12.8485 17.2631C12.8913 17.2641 12.9333 17.2746 12.9716 17.294C13.0099 17.3133 13.0434 17.341 13.0698 17.3751L22.2538 30.627C22.3391 30.7712 22.4577 30.8922 22.5995 30.9795C22.7413 31.0668 22.902 31.1179 23.0677 31.1283C23.2334 31.1386 23.399 31.108 23.5504 31.039C23.7018 30.9701 23.8342 30.8648 23.9364 30.7324L24.008 30.627L33.2278 17.3421C33.2467 17.3222 33.2695 17.3064 33.2947 17.2956C33.3198 17.2849 33.3469 17.2794 33.3742 17.2796C33.4291 17.2791 33.4824 17.2979 33.5251 17.3327C33.5678 17.3676 33.5973 17.4163 33.6086 17.4706V38.1784C33.609 38.4509 33.7153 38.7124 33.9047 38.9062L34.087 39.0544L38.8222 42.8778L38.884 42.9305C39.0504 43.0376 39.2433 43.0947 39.4405 43.0952C39.6974 43.0952 39.9449 42.9972 40.1337 42.8209C40.3225 42.6445 40.4387 42.4026 40.4591 42.1434C40.4607 42.1138 40.4607 42.0841 40.4591 42.0545C40.4607 42.026 40.4607 41.9974 40.4591 41.9689" fill="white"/>
        <path d="M213.25 40.3651C214.623 40.3651 215.528 39.3475 215.528 37.7305C215.528 36.1135 214.61 35.0762 213.25 35.0762C211.89 35.0762 210.972 36.0938 210.972 37.7305C210.972 39.3672 211.886 40.3651 213.25 40.3651ZM234.674 39.8942V39.0939L233.577 38.5505C232.721 38.152 232.601 37.7865 232.601 35.8962V14.0983L232.298 13.7361L226.557 14.4902V15.2905L227.625 15.7614C228.539 16.1994 228.63 16.42 228.63 18.1259V21.1392C228.63 21.867 228.51 22.0482 228.084 22.0482C227.84 22.0482 227.534 21.9757 227.198 21.9395C226.816 21.8631 226.427 21.8267 226.037 21.8308C222.405 21.8308 218.776 24.4094 218.776 31.2396C218.776 36.9434 220.149 40.3585 224.237 40.3585C225.236 40.3831 226.219 40.0906 227.046 39.522C227.625 39.0873 227.96 38.6888 228.347 38.6888C228.446 38.6951 228.542 38.7292 228.623 38.7874C228.704 38.8455 228.768 38.9255 228.806 39.0182C228.945 39.2916 229.037 39.5866 229.08 39.8909L234.674 39.8942ZM228.63 35.1717C228.63 37.2069 228.022 38.185 226.222 38.185C223.443 38.185 222.987 34.3714 222.987 29.8663C222.987 26.4512 223.638 23.5071 225.916 23.5071C228.051 23.5071 228.63 24.6729 228.63 27.2877V35.1717ZM249.569 36.9138L249.244 36.0773C248.482 36.5878 246.832 37.6778 245.033 37.6778C242.013 37.6778 240.516 34.9905 240.516 32.0102C240.516 31.065 240.76 30.9563 241.645 30.9563H248.421C249.429 30.9563 249.765 30.3734 249.765 29.2505C249.765 24.2711 247.871 21.8374 243.506 21.8374C239.51 21.8374 236.304 24.7815 236.304 30.6303C236.304 37.0225 238.381 40.3651 242.96 40.3651C245.065 40.3651 246.042 40.0358 246.927 39.275L249.569 36.9138ZM241.785 29.2834C240.841 29.2834 240.503 29.066 240.503 28.2691C240.503 25.9638 241.153 23.5071 242.823 23.5071C244.655 23.5071 245.785 25.6872 245.785 28.1571C245.785 29.066 245.693 29.2834 244.867 29.2834H241.785Z" fill="black"/>
    </g>
    <defs>
        <clipPath id="clip0_13_475">
            <rect width="250" height="55.6" fill="white"/>
        </clipPath>
    </defs>
</svg>
