<svg id="Ebene_1" data-name="Ebene 1" xmlns="http://www.w3.org/2000/svg" viewBox="0 0 767.42 170.08">
  <defs>
    <style>
      .cls-1 {
        fill: #008bd0;
      }

      .cls-2 {
        fill: #fff;
      }
    </style>
  </defs>
  <g>
    <path d="M177.67,120.51h32V117l-6.35-2.86c-6.49-2.86-6.89-5.56-6.89-17.49l1.89-50.06c0-2.55.27-4,1.35-4,.81,0,1.21,1.58,2.3,4.29l15.8,44.34c4.46,12.56,8.65,24.8,9.87,28.13l1.34,1.12h6.36l1.35-1.12c.94-2.7,7.16-22.88,10.53-32.26l15-42c.68-1.91,1.22-2.54,1.89-2.54,1.08,0,1.22.79,1.35,3l1.08,52.93c.14,10.34-.8,13.67-4.32,15.26L256,117v3.5h38.91V117l-5.41-3.18c-3.1-1.75-4-3.66-4.32-17.48l-1.48-56.27c-.14-3.65-.28-7.31-.28-11,0-5.08.68-6.67,4.33-8.74l5.13-2.86V14H265.08l-1.21,1.11c-1.36,4.92-2.84,9.85-4.33,14.46L240.09,85.86c-1,2.7-1.22,4-2,4s-1.35-1.27-2-3.34L216.17,31c-1.89-5.24-3.51-10.49-5-15.89L209.82,14H182v3.49l5.67,3.18c3.52,2.07,4.19,4.29,4.19,11,0,1.9-.27,6-.41,9.06l-2.7,50.06c-.94,17.65-1.21,21-5.81,23.37L177.67,117Zm183.61-13-1.49-3.65c-3.38,2.22-10.68,7-18.65,7-13.37,0-20-11.76-20-24.8,0-4.13,1.08-4.61,5-4.61h30c4.46,0,5.95-2.54,5.95-7.46,0-21.78-8.38-32.43-27.7-32.43-17.7,0-31.88,12.88-31.88,38.47,0,28,9.18,42.59,29.45,42.59,9.32,0,13.64-1.43,17.56-4.76ZM326.83,74.09c-4.19,0-5.68-1-5.68-4.45,0-10,2.84-20.82,10.27-20.82,8.11,0,13.1,9.54,13.1,20.35,0,4-.4,4.92-4,4.92Zm42.28,46.42h36.75V117l-5.67-2.39c-3.79-1.58-4.33-3.33-4.33-11.6V64.08c0-6.2,1.08-9.85,7.16-9.85,6.62,0,8.79,5.56,10.27,9.21h2.3l5-12.07a8.55,8.55,0,0,0,.81-3c0-5.24-3.92-6.83-9.19-6.83-8.1,0-13.64,8.74-15.67,8.74S394,46.12,393,42.31L369.11,46.6v3.49l4.73,2.07c4.06,1.91,4.46,2.86,4.46,10.33V103c0,8.27-.14,9.7-4.32,11.6L369.11,117Zm57.69,0h35.94V117l-4.87-2.39c-3.78-1.74-4.32-3.33-4.32-11.6V87.29c0-3.34.27-4.13,1.22-4.45a7.3,7.3,0,0,1,2.16-.64c.54,0,1.62.8,2.57,2.7l12.83,23.85c3,5.72,6.22,11.76,11.22,11.76h19.32V117c-7.7-6.52-31.08-43.23-31.08-47.21,0-.79,1.22-2.54,2-3.65l6.89-9.22c2.84-3.66,4.19-5.25,8-7L495,47.08v-3.5H467.2v3.5l4.32,2.38c1.22.79,2,1.43,2,2.38,0,1.75-1.49,4.3-4.05,8.43l-3.65,6c-2.43,4.13-4.33,5.72-6.35,6.83s-3.24,1.75-4.46,1.75-1.49-1-1.49-3.65V7.66L452.2,6.07,426.8,9.41V12.9L431.53,15c4.06,1.9,4.46,2.86,4.46,10.33V103c0,8.27-.14,9.7-4.33,11.6L426.8,117Zm158.48,0V117l-4.86-2.39c-3.79-1.74-4.33-3.33-4.33-11.6V43.89l-1.35-1.58-25.4,4.29v3.49l4.73,2.07c4.06,1.91,4.46,2.86,4.46,10.33V98.1c0,9.69-1.35,14.78-10.94,14.94-11,0-12.16-8.74-12.16-20.35V43.89l-1.35-1.58-25.4,4.29v3.49l4.73,2.07c4.05,1.91,4.45,2.86,4.45,10.33V97c0,15.74,5.54,25.59,19.32,25.59,7.43,0,11.76-1.75,14.73-3.49s4.33-3.5,6-3.5c.8,0,1.21.64,1.62,1.59a23.46,23.46,0,0,1,.94,3.34Zm6.49,0h36.75V117l-5.68-2.39c-3.78-1.58-4.32-3.33-4.32-11.6V64.08c0-6.2,1.08-9.85,7.16-9.85,6.62,0,8.78,5.56,10.27,9.21h2.29l5-12.07a8.35,8.35,0,0,0,.81-3c0-5.24-3.91-6.83-9.18-6.83-8.11,0-13.65,8.74-15.68,8.74s-2.56-4.13-3.51-7.94L591.77,46.6v3.49l4.73,2.07c4,1.91,4.45,2.86,4.45,10.33V103c0,8.27-.13,9.7-4.32,11.6L591.77,117Z" transform="translate(0 0)"/>
    <path class="cls-1" d="M138.57,11.74A22.84,22.84,0,0,0,119.36,0H23.2A23.27,23.27,0,0,0,3,11.74,22.62,22.62,0,0,0,0,23v74.9a22.84,22.84,0,0,0,3,11.39A23.07,23.07,0,0,0,23,121l56.34.1,40,31.53,19.21,15.13,3,2.37V23.23a23.05,23.05,0,0,0-3-11.49" transform="translate(0 0)"/>
    <path class="cls-2" d="M124.35,127.37V22.17a8.14,8.14,0,0,0-5-7.53,8.24,8.24,0,0,0-3.1-.61H105a7.13,7.13,0,0,0-6,3.22C97.12,20,80.45,44.89,73.65,55.05h0l-.09.15c-.13.2-.27.32-.39.5a3.14,3.14,0,0,1-4.77,0l-.4-.53-.08-.13h0L42.59,17.25a7.14,7.14,0,0,0-6-3.22H24.5a7.3,7.3,0,0,0-7.3,7.3V98.8a8.57,8.57,0,0,0,8.36,8.56l0,0h4.75l0,0a7.77,7.77,0,0,0,1-.08,7.12,7.12,0,0,0,3.55-1.34,8.54,8.54,0,0,0,3.83-7.14V53.2h0a.78.78,0,0,1,.79-.78.89.89,0,0,1,.68.34L68.38,93h0a3.14,3.14,0,0,0,5.17.32l.22-.32,28.33-40.34a.62.62,0,0,1,.45-.19.73.73,0,0,1,.72.58v62.88a3.15,3.15,0,0,0,.91,2.21l.56.45,14.55,11.61.19.16s0,0,0,0a3.2,3.2,0,0,0,1.71.5,3.14,3.14,0,0,0,3.13-2.89,2.48,2.48,0,0,0,0-.27,2.3,2.3,0,0,0,0-.26" transform="translate(0 0)"/>
    <path d="M655.26,122.57c4.22,0,7-3.09,7-8s-2.82-8.06-7-8.06-7,3.09-7,8.06,2.81,8,7,8m65.83-1.43v-2.43l-3.37-1.65c-2.63-1.21-3-2.32-3-8.06V42.81l-.93-1.1L696.15,44v2.43l3.28,1.43c2.81,1.33,3.09,2,3.09,7.18v9.15c0,2.21-.37,2.76-1.68,2.76-.75,0-1.69-.22-2.72-.33a17.49,17.49,0,0,0-3.57-.33c-11.16,0-22.31,7.83-22.31,28.57,0,17.32,4.22,27.69,16.78,27.69a14.72,14.72,0,0,0,8.63-2.54c1.78-1.32,2.81-2.53,4-2.53a1.64,1.64,0,0,1,1.41,1,8.35,8.35,0,0,1,.84,2.65ZM702.52,106.8c0,6.18-1.87,9.15-7.4,9.15-8.54,0-9.94-11.58-9.94-25.26,0-10.37,2-19.31,9-19.31,6.56,0,8.34,3.54,8.34,11.48Zm64.34,5.29-1-2.54c-2.34,1.55-7.41,4.86-12.94,4.86-9.28,0-13.88-8.16-13.88-17.21,0-2.87.75-3.2,3.47-3.2h20.82c3.1,0,4.13-1.77,4.13-5.18,0-15.12-5.82-22.51-19.23-22.51-12.28,0-22.13,8.94-22.13,26.7,0,19.41,6.38,29.56,20.45,29.56,6.47,0,9.47-1,12.19-3.31ZM742.94,88.92c-2.9,0-3.94-.66-3.94-3.08,0-7,2-14.46,7.13-14.46,5.63,0,9.1,6.62,9.1,14.12,0,2.76-.28,3.42-2.82,3.42Z" transform="translate(0 0)"/>
  </g>
</svg>
