<svg width="101" height="35" viewBox="0 0 101 35" fill="none" xmlns="http://www.w3.org/2000/svg">
<path d="M3.80579 3.03001C4.04579 2.71667 4.36246 2.45667 4.75579 2.25001C5.14913 2.03667 5.57913 1.93001 6.04579 1.93001C6.47246 1.93001 6.84913 2.02001 7.17579 2.20001C7.50913 2.37334 7.76579 2.62667 7.94579 2.96001C8.12579 3.28667 8.21579 3.67334 8.21579 4.12001C8.21579 4.31334 8.19579 4.52001 8.15579 4.74001C8.05579 5.29334 7.85246 5.78667 7.54579 6.22001C7.24579 6.65334 6.87579 6.99001 6.43579 7.23001C6.00246 7.47001 5.54246 7.59001 5.05579 7.59001C4.58913 7.59001 4.19579 7.48667 3.87579 7.28001C3.56246 7.06667 3.33579 6.80334 3.19579 6.49001L2.56579 10.1H1.65579L3.07579 2.02001H3.98579L3.80579 3.03001ZM7.22579 4.74001C7.25246 4.60001 7.26579 4.44667 7.26579 4.28001C7.26579 3.79334 7.12246 3.41334 6.83579 3.14001C6.54913 2.86001 6.17913 2.72001 5.72579 2.72001C5.39246 2.72001 5.06913 2.80334 4.75579 2.97001C4.44246 3.13001 4.17246 3.36667 3.94579 3.68001C3.72579 3.98667 3.57913 4.34334 3.50579 4.75001C3.47913 4.89001 3.46579 5.04334 3.46579 5.21001C3.46579 5.69667 3.60913 6.08334 3.89579 6.37001C4.18913 6.65001 4.55913 6.79001 5.00579 6.79001C5.34579 6.79001 5.66913 6.71001 5.97579 6.55001C6.28913 6.38334 6.55579 6.14667 6.77579 5.84001C7.00246 5.52667 7.15246 5.16001 7.22579 4.74001Z" fill="#4D4D4D"/>
<path d="M12.0736 7.59001C11.6136 7.59001 11.2069 7.49667 10.8536 7.31001C10.5069 7.11667 10.2369 6.85001 10.0436 6.51001C9.85027 6.16334 9.75361 5.76334 9.75361 5.31001C9.75361 4.69001 9.89694 4.12334 10.1836 3.61001C10.4703 3.09001 10.8636 2.68001 11.3636 2.38001C11.8703 2.08001 12.4336 1.93001 13.0536 1.93001C13.5136 1.93001 13.9203 2.02667 14.2736 2.22001C14.6336 2.40667 14.9103 2.67334 15.1036 3.02001C15.3036 3.36001 15.4036 3.76001 15.4036 4.22001C15.4036 4.84001 15.2569 5.40667 14.9636 5.92001C14.6703 6.43334 14.2703 6.84001 13.7636 7.14001C13.2569 7.44001 12.6936 7.59001 12.0736 7.59001ZM12.1836 6.82001C12.6169 6.82001 13.0069 6.70334 13.3536 6.47001C13.7003 6.23001 13.9703 5.91667 14.1636 5.53001C14.3636 5.13667 14.4636 4.71667 14.4636 4.27001C14.4636 3.76334 14.3169 3.37667 14.0236 3.11001C13.7303 2.83667 13.3636 2.70001 12.9236 2.70001C12.4903 2.70001 12.1036 2.82001 11.7636 3.06001C11.4236 3.29334 11.1603 3.60667 10.9736 4.00001C10.7869 4.39334 10.6936 4.81667 10.6936 5.27001C10.6936 5.76334 10.8336 6.14667 11.1136 6.42001C11.3936 6.68667 11.7503 6.82001 12.1836 6.82001Z" fill="#4D4D4D"/>
<path d="M25.1301 2.02001L22.4501 7.50001H21.5101L20.9701 3.14001L18.8701 7.50001H17.9301L17.1801 2.02001H18.1101L18.5601 6.62001L20.7201 2.02001H21.6601L22.1801 6.59001L24.2301 2.02001H25.1301Z" fill="#4D4D4D"/>
<path d="M29.2132 1.93001C29.6732 1.93001 30.0699 2.02001 30.4032 2.20001C30.7432 2.37334 30.9999 2.62001 31.1732 2.94001C31.3532 3.25334 31.4432 3.61334 31.4432 4.02001C31.4432 4.16001 31.4265 4.33001 31.3932 4.53001C31.3665 4.70334 31.3232 4.88334 31.2632 5.07001H26.8832C26.8699 5.20334 26.8632 5.30001 26.8632 5.36001C26.8632 5.82001 26.9999 6.18001 27.2732 6.44001C27.5532 6.69334 27.9165 6.82001 28.3632 6.82001C28.7565 6.82001 29.0999 6.73001 29.3932 6.55001C29.6932 6.36334 29.9199 6.11667 30.0732 5.81001H31.0532C30.8132 6.33667 30.4432 6.76667 29.9432 7.10001C29.4499 7.42667 28.8765 7.59001 28.2232 7.59001C27.5365 7.59001 26.9832 7.39334 26.5632 7.00001C26.1499 6.60001 25.9432 6.05667 25.9432 5.37001C25.9432 5.17667 25.9632 4.97001 26.0032 4.75001C26.1032 4.18334 26.3065 3.68667 26.6132 3.26001C26.9199 2.83334 27.2965 2.50667 27.7432 2.28001C28.1965 2.04667 28.6865 1.93001 29.2132 1.93001ZM30.4732 4.41001C30.4932 4.27667 30.5032 4.15334 30.5032 4.04001C30.5032 3.61334 30.3665 3.28334 30.0932 3.05001C29.8265 2.81667 29.4765 2.70001 29.0432 2.70001C28.5765 2.70001 28.1532 2.85334 27.7732 3.16001C27.3932 3.46001 27.1365 3.87667 27.0032 4.41001H30.4732Z" fill="#4D4D4D"/>
<path d="M34.5644 3.06001C34.7844 2.70001 35.0611 2.42001 35.3944 2.22001C35.7277 2.02001 36.1077 1.92001 36.5344 1.92001L36.3644 2.86001H36.1244C35.6511 2.86001 35.2544 2.98667 34.9344 3.24001C34.6211 3.49334 34.4111 3.92001 34.3044 4.52001L33.7744 7.50001H32.8644L33.8344 2.02001H34.7444L34.5644 3.06001Z" fill="#4D4D4D"/>
<path d="M40.7449 1.93001C41.2049 1.93001 41.6015 2.02001 41.9349 2.20001C42.2749 2.37334 42.5315 2.62001 42.7049 2.94001C42.8849 3.25334 42.9749 3.61334 42.9749 4.02001C42.9749 4.16001 42.9582 4.33001 42.9249 4.53001C42.8982 4.70334 42.8549 4.88334 42.7949 5.07001H38.4149C38.4015 5.20334 38.3949 5.30001 38.3949 5.36001C38.3949 5.82001 38.5315 6.18001 38.8049 6.44001C39.0849 6.69334 39.4482 6.82001 39.8949 6.82001C40.2882 6.82001 40.6315 6.73001 40.9249 6.55001C41.2249 6.36334 41.4515 6.11667 41.6049 5.81001H42.5849C42.3449 6.33667 41.9749 6.76667 41.4749 7.10001C40.9815 7.42667 40.4082 7.59001 39.7549 7.59001C39.0682 7.59001 38.5149 7.39334 38.0949 7.00001C37.6815 6.60001 37.4749 6.05667 37.4749 5.37001C37.4749 5.17667 37.4949 4.97001 37.5349 4.75001C37.6349 4.18334 37.8382 3.68667 38.1449 3.26001C38.4515 2.83334 38.8282 2.50667 39.2749 2.28001C39.7282 2.04667 40.2182 1.93001 40.7449 1.93001ZM42.0049 4.41001C42.0249 4.27667 42.0349 4.15334 42.0349 4.04001C42.0349 3.61334 41.8982 3.28334 41.6249 3.05001C41.3582 2.81667 41.0082 2.70001 40.5749 2.70001C40.1082 2.70001 39.6849 2.85334 39.3049 3.16001C38.9249 3.46001 38.6682 3.87667 38.5349 4.41001H42.0049Z" fill="#4D4D4D"/>
<path d="M44.536 4.74001C44.636 4.18001 44.836 3.69001 45.136 3.27001C45.4427 2.84334 45.816 2.51334 46.256 2.28001C46.696 2.04667 47.1627 1.93001 47.656 1.93001C48.076 1.93001 48.4527 2.03001 48.786 2.23001C49.1194 2.42334 49.356 2.68001 49.496 3.00001L50.006 0.100006H50.926L49.616 7.50001H48.696L48.886 6.47001C48.6527 6.79667 48.3394 7.06667 47.946 7.28001C47.5527 7.48667 47.1194 7.59001 46.646 7.59001C46.2194 7.59001 45.8427 7.50001 45.516 7.32001C45.1894 7.13334 44.9327 6.87001 44.746 6.53001C44.566 6.19001 44.476 5.79667 44.476 5.35001C44.476 5.15001 44.496 4.94667 44.536 4.74001ZM49.186 4.75001C49.2127 4.61001 49.226 4.46001 49.226 4.30001C49.226 3.81334 49.0794 3.43001 48.786 3.15001C48.4994 2.86334 48.1327 2.72001 47.686 2.72001C47.346 2.72001 47.0194 2.80001 46.706 2.96001C46.3994 3.12001 46.136 3.35334 45.916 3.66001C45.696 3.96667 45.5494 4.32667 45.476 4.74001C45.4494 4.88001 45.436 5.03334 45.436 5.20001C45.436 5.69334 45.5794 6.08334 45.866 6.37001C46.1527 6.65001 46.5194 6.79001 46.966 6.79001C47.306 6.79001 47.6294 6.71001 47.936 6.55001C48.2494 6.38334 48.516 6.14667 48.736 5.84001C48.9627 5.52667 49.1127 5.16334 49.186 4.75001Z" fill="#4D4D4D"/>
<path d="M57.4324 3.04001C57.679 2.71334 57.999 2.44667 58.3924 2.24001C58.7857 2.03334 59.2124 1.93001 59.6724 1.93001C60.3257 1.93001 60.849 2.12667 61.2424 2.52001C61.6424 2.91334 61.8424 3.44667 61.8424 4.12001C61.8424 4.31334 61.8224 4.52001 61.7824 4.74001C61.6824 5.29334 61.479 5.78667 61.1724 6.22001C60.8724 6.65334 60.5024 6.99001 60.0624 7.23001C59.629 7.47001 59.169 7.59001 58.6824 7.59001C58.209 7.59001 57.8124 7.48667 57.4924 7.28001C57.1724 7.07334 56.949 6.81001 56.8224 6.49001L56.6424 7.50001H55.7324L57.0424 0.100006H57.9524L57.4324 3.04001ZM60.8524 4.74001C60.879 4.60001 60.8924 4.44667 60.8924 4.28001C60.8924 3.79334 60.749 3.41334 60.4624 3.14001C60.1757 2.86001 59.8057 2.72001 59.3524 2.72001C59.019 2.72001 58.6957 2.80334 58.3824 2.97001C58.069 3.13001 57.799 3.36667 57.5724 3.68001C57.3524 3.98667 57.2057 4.34334 57.1324 4.75001C57.1057 4.89001 57.0924 5.04334 57.0924 5.21001C57.0924 5.69667 57.2357 6.08334 57.5224 6.37001C57.8157 6.65001 58.1857 6.79001 58.6324 6.79001C58.9724 6.79001 59.2957 6.71001 59.6024 6.55001C59.9157 6.38334 60.1824 6.14667 60.4024 5.84001C60.629 5.52667 60.779 5.16001 60.8524 4.74001Z" fill="#4D4D4D"/>
<path d="M64.6202 2.02001L65.5502 6.44001L68.0402 2.02001H68.9802L64.2602 10.08H63.3102L64.8602 7.44001L63.6102 2.02001H64.6202Z" fill="#4D4D4D"/>
<path d="M6.8456 34.288C5.1976 34.288 3.8296 33.968 2.7416 33.328C1.6536 32.688 0.885599 31.8 0.437599 30.664C0.00559881 29.512 -0.0584012 28.16 0.245599 26.608L2.1416 17.2H6.0296L4.1576 26.536C3.8536 28.04 3.9816 29.16 4.5416 29.896C5.1016 30.616 6.0136 30.976 7.2776 30.976C8.4456 30.976 9.3816 30.632 10.0856 29.944C10.8056 29.24 11.3176 28.104 11.6216 26.536L13.4936 17.2H17.3336L15.4136 26.776C14.9176 29.256 13.9496 31.128 12.5096 32.392C11.0856 33.656 9.1976 34.288 6.8456 34.288Z" fill="#212121"/>
<path d="M23.4423 34.288C22.5303 34.288 21.6423 34.2 20.7783 34.024C19.9303 33.864 19.1543 33.64 18.4503 33.352C17.7623 33.064 17.1783 32.752 16.6983 32.416L18.2823 29.416C18.8103 29.784 19.3703 30.104 19.9623 30.376C20.5703 30.632 21.2023 30.832 21.8583 30.976C22.5143 31.104 23.1703 31.168 23.8263 31.168C24.5463 31.168 25.1623 31.088 25.6743 30.928C26.2023 30.768 26.6024 30.544 26.8743 30.256C27.1623 29.968 27.3063 29.616 27.3063 29.2C27.3063 28.816 27.1544 28.504 26.8503 28.264C26.5463 28.024 26.1463 27.824 25.6503 27.664C25.1703 27.488 24.6343 27.32 24.0423 27.16C23.4503 27 22.8503 26.816 22.2423 26.608C21.6503 26.384 21.1063 26.112 20.6103 25.792C20.1304 25.456 19.7383 25.032 19.4343 24.52C19.1303 24.008 18.9783 23.368 18.9783 22.6C18.9783 21.448 19.2903 20.448 19.9143 19.6C20.5543 18.752 21.4503 18.096 22.6023 17.632C23.7543 17.152 25.1063 16.912 26.6583 16.912C27.7943 16.912 28.8664 17.04 29.8743 17.296C30.8824 17.536 31.7463 17.888 32.4664 18.352L31.0023 21.328C30.3623 20.896 29.6503 20.576 28.8663 20.368C28.0823 20.144 27.2743 20.032 26.4424 20.032C25.6903 20.032 25.0423 20.12 24.4983 20.296C23.9703 20.472 23.5623 20.72 23.2743 21.04C23.0023 21.344 22.8663 21.696 22.8663 22.096C22.8663 22.496 23.0103 22.824 23.2983 23.08C23.6023 23.32 24.0023 23.528 24.4983 23.704C24.9943 23.864 25.5383 24.024 26.1304 24.184C26.7224 24.344 27.3144 24.528 27.9063 24.736C28.4983 24.944 29.0423 25.208 29.5383 25.528C30.0343 25.848 30.4343 26.256 30.7383 26.752C31.0424 27.232 31.1943 27.84 31.1943 28.576C31.1943 29.728 30.8743 30.736 30.2344 31.6C29.5943 32.448 28.6903 33.112 27.5223 33.592C26.3703 34.056 25.0103 34.288 23.4423 34.288Z" fill="#212121"/>
<path d="M38.483 23.968H46.571L45.971 26.992H37.883L38.483 23.968ZM37.379 30.88H46.547L45.899 34H32.891L36.251 17.2H48.947L48.299 20.32H39.491L37.379 30.88Z" fill="#212121"/>
<path d="M48.9926 34L52.3526 17.2H59.1926C61.2886 17.2 62.9046 17.656 64.0406 18.568C65.1926 19.48 65.7686 20.76 65.7686 22.408C65.7686 23.816 65.4326 25.04 64.7606 26.08C64.1046 27.104 63.1606 27.896 61.9286 28.456C60.7126 29.016 59.2726 29.296 57.6086 29.296H52.1366L54.1766 27.592L52.9046 34H48.9926ZM59.7926 34L56.3606 27.904H60.4406L63.8966 34H59.7926ZM54.0806 28.048L52.7366 26.2H57.7526C59.0486 26.2 60.0486 25.912 60.7526 25.336C61.4726 24.744 61.8326 23.888 61.8326 22.768C61.8326 21.952 61.5526 21.352 60.9926 20.968C60.4486 20.568 59.6806 20.368 58.6886 20.368H53.9606L56.0006 18.472L54.0806 28.048Z" fill="#212121"/>
<path d="M68.105 34.192C67.465 34.192 66.937 33.992 66.521 33.592C66.105 33.176 65.897 32.656 65.897 32.032C65.897 31.28 66.137 30.68 66.617 30.232C67.113 29.768 67.705 29.536 68.393 29.536C69.033 29.536 69.553 29.736 69.953 30.136C70.369 30.536 70.577 31.056 70.577 31.696C70.577 32.192 70.457 32.632 70.217 33.016C69.993 33.384 69.697 33.672 69.329 33.88C68.961 34.088 68.553 34.192 68.105 34.192Z" fill="#212121"/>
<path d="M72.2743 34L75.6343 17.2H81.2983L77.9383 34H72.2743Z" fill="#212121"/>
<path d="M80.6649 34L84.0249 17.2H91.6089C93.3849 17.2 94.9129 17.488 96.1929 18.064C97.4729 18.64 98.4569 19.464 99.1449 20.536C99.8329 21.592 100.177 22.856 100.177 24.328C100.177 25.816 99.9129 27.152 99.3849 28.336C98.8729 29.52 98.1449 30.536 97.2009 31.384C96.2729 32.232 95.1689 32.88 93.8889 33.328C92.6089 33.776 91.2009 34 89.6649 34H80.6649ZM87.2169 29.584H89.8569C90.8649 29.584 91.7049 29.368 92.3769 28.936C93.0649 28.488 93.5849 27.896 93.9369 27.16C94.2889 26.408 94.4649 25.576 94.4649 24.664C94.4649 24.008 94.3289 23.456 94.0569 23.008C93.8009 22.56 93.4089 22.216 92.8809 21.976C92.3689 21.736 91.7289 21.616 90.9609 21.616H88.8009L87.2169 29.584Z" fill="#212121"/>
</svg>
